<svg width="68" height="105" viewBox="0 0 68 105" fill="none" xmlns="http://www.w3.org/2000/svg">
<path d="M60.8081 12.5528V23.2097L55.8635 26.575L48.5992 31.5157L40.5269 37.0086L27.8593 30.6143L11.8533 22.5357L8.51994 20.853L5.18652 18.1602L15.479 8.88179L18.4351 6.21729C21.9267 3.07007 26.4437 1.33057 31.1245 1.33057H49.6921C51.1519 1.33057 52.5974 1.62084 53.946 2.18481C55.2947 2.74878 56.5201 3.5754 57.5523 4.61748C58.5845 5.65956 59.4033 6.89669 59.962 8.25824C60.5206 9.61978 60.8081 11.0791 60.8081 12.5528Z" fill="#3F3D56"/>
<path d="M55.908 18.1124L60.8085 12.7349C69.3771 44.6446 70.0775 75.4938 60.8085 104.999H54.5906L54.2559 104.661L45.5878 95.9122L40.5566 90.833L40.6889 89.854L41.1459 86.4871L42.1499 79.0826L43.2452 71.004L44.3406 62.927L45.436 54.8484L46.324 48.2942L46.3697 47.963L46.5313 46.7698L47.6267 38.6912L48.5996 31.5157L48.722 30.6142L49.5284 24.6682L49.8631 22.1994L55.8639 18.1601L55.908 18.1124Z" fill="#CCCCCC"/>
<path d="M5.18615 18.1597H55.8637V105H5.18615C-0.347281 73.2252 -1.73823 43.5676 5.18615 18.1597Z" fill="#F2F2F2"/>
<path d="M34.1923 83.7949H24.8569V105H34.1923V83.7949Z" fill="#CCCCCC"/>
<path d="M49.5289 71.0044H10.854V79.0826H49.5289V71.0044Z" fill="#3F3D56"/>
<path d="M52.4828 90.3057H35.9932V93.7499H52.4828V90.3057Z" fill="#3F3D56"/>
<path d="M23.0995 90.3057H6.60986V93.7499H23.0995V90.3057Z" fill="#3F3D56"/>
<path d="M49.5289 54.8481H10.854V62.9263H49.5289V54.8481Z" fill="#3F3D56"/>
<path d="M49.5289 38.6917H10.854V46.7698H49.5289V38.6917Z" fill="#3F3D56"/>
<path d="M49.5289 22.5354H10.854V30.6136H49.5289V22.5354Z" fill="#3F3D56"/>
<path d="M60.8082 104.739H0.571777V104.904H60.8082V104.739Z" fill="#3F3D56"/>
<path d="M30.2609 1.01413L50.5335 0.0134019C53.3295 -0.124618 56.0742 0.807439 58.2191 2.62337C60.3641 4.43929 61.7514 7.00538 62.1039 9.80896L64.563 29.365L55.9259 18.1222L55.9079 18.1124L30.0617 4.5788L29.5488 4.31028C27.9799 3.48897 28.4957 1.10135 30.2609 1.01413H30.2609Z" fill="#3F3D56"/>
<path d="M40.5663 7.73975H24.0767V11.184H40.5663V7.73975Z" fill="#F2F2F2"/>
<path d="M34.1997 81.6072H26.5273C21.1836 60.5471 21.1836 39.8919 26.5273 19.6416H34.1997C39.084 40.6527 39.2591 61.3206 34.1997 81.6072Z" fill="#F2F2F2"/>
</svg>
