<svg width="182" height="258" viewBox="0 0 182 258" fill="none" xmlns="http://www.w3.org/2000/svg">
<path d="M155.203 61.3017H153.788V22.473C153.788 19.5218 153.208 16.5995 152.08 13.873C150.953 11.1464 149.3 8.66902 147.217 6.5822C145.134 4.49539 142.661 2.84004 139.939 1.71066C137.217 0.581287 134.3 2.50049e-06 131.354 0H49.2314C43.2814 -1.13622e-05 37.5752 2.36766 33.3679 6.58215C29.1606 10.7966 26.797 16.5127 26.797 22.4729V235.49C26.797 238.441 27.3773 241.364 28.5047 244.09C29.6321 246.817 31.2846 249.294 33.3678 251.381C35.4511 253.468 37.9242 255.123 40.6461 256.253C43.3679 257.382 46.2852 257.963 49.2313 257.963H131.354C137.304 257.963 143.01 255.596 147.217 251.381C151.424 247.167 153.788 241.451 153.788 235.49V88.9406H155.203V61.3017Z" fill="#3F3D56"/>
<path d="M132.259 5.84668H121.539C122.032 7.05737 122.22 8.37092 122.087 9.67162C121.954 10.9723 121.503 12.2203 120.775 13.3055C120.047 14.3907 119.064 15.2799 117.912 15.8948C116.76 16.5096 115.475 16.8313 114.17 16.8314H67.1228C65.8175 16.8313 64.5323 16.5096 63.3803 15.8948C62.2284 15.2799 61.2451 14.3907 60.517 13.3055C59.7889 12.2203 59.3385 10.9723 59.2053 9.67163C59.0721 8.37093 59.2603 7.05737 59.7532 5.84668H49.741C47.5409 5.84668 45.3623 6.28077 43.3297 7.12418C41.297 7.96758 39.4501 9.20377 37.8944 10.7622C36.3386 12.3206 35.1046 14.1707 34.2626 16.2068C33.4207 18.243 32.9873 20.4253 32.9873 22.6293V235.334C32.9873 237.538 33.4207 239.72 34.2626 241.756C35.1046 243.793 36.3386 245.643 37.8943 247.201C39.4501 248.759 41.297 249.996 43.3296 250.839C45.3623 251.682 47.5409 252.117 49.741 252.117H132.259C134.459 252.117 136.638 251.682 138.67 250.839C140.703 249.996 142.55 248.759 144.106 247.201C145.661 245.643 146.895 243.793 147.737 241.756C148.579 239.72 149.013 237.538 149.013 235.334V22.6293C149.013 20.4253 148.579 18.243 147.737 16.2068C146.895 14.1707 145.661 12.3206 144.106 10.7622C142.55 9.20377 140.703 7.96758 138.67 7.12418C136.638 6.28077 134.459 5.84668 132.259 5.84668Z" fill="white"/>
<path d="M181.525 258H0.475196C0.349166 258 0.228298 257.95 0.139181 257.86C0.0500648 257.771 0 257.65 0 257.524C0 257.398 0.0500648 257.277 0.139181 257.187C0.228298 257.098 0.349166 257.048 0.475196 257.048H181.525C181.651 257.048 181.772 257.098 181.861 257.187C181.95 257.277 182 257.398 182 257.524C182 257.65 181.95 257.771 181.861 257.86C181.772 257.95 181.651 258 181.525 258Z" fill="#CBCBCB"/>
<path d="M90.9999 164.549C113.162 164.549 131.128 146.552 131.128 124.351C131.128 102.15 113.162 84.1533 90.9999 84.1533C68.8376 84.1533 50.8715 102.15 50.8715 124.351C50.8715 146.552 68.8376 164.549 90.9999 164.549Z" fill="#92C000"/>
<path d="M87.0235 139.685C86.1207 139.687 85.242 139.394 84.5197 138.852L84.4749 138.818L75.0442 131.591C74.6074 131.256 74.2408 130.838 73.9655 130.36C73.6901 129.883 73.5112 129.356 73.4392 128.809C73.3671 128.263 73.4032 127.707 73.5454 127.175C73.6876 126.642 73.9332 126.143 74.268 125.705C74.6029 125.268 75.0205 124.901 75.497 124.625C75.9735 124.349 76.4996 124.17 77.0452 124.098C77.5908 124.025 78.1453 124.062 78.677 124.204C79.2087 124.347 79.7071 124.593 80.1439 124.928L86.2523 129.62L100.687 110.756C101.022 110.319 101.439 109.952 101.915 109.676C102.392 109.4 102.918 109.221 103.463 109.149C104.008 109.077 104.563 109.113 105.094 109.256C105.626 109.398 106.124 109.644 106.56 109.979L106.562 109.98L106.472 110.105L106.564 109.98C107.445 110.658 108.021 111.659 108.166 112.762C108.312 113.865 108.014 114.981 107.339 115.865L90.3607 138.043C89.9679 138.554 89.4628 138.968 88.8847 139.252C88.3067 139.535 87.671 139.682 87.0272 139.68L87.0235 139.685Z" fill="white"/>
</svg>
