<svg width="26" height="26" viewBox="0 0 26 26" fill="none" xmlns="http://www.w3.org/2000/svg">
<path fill-rule="evenodd" clip-rule="evenodd" d="M10.0512 0.479949C9.46357 0.236827 8.80353 0.236827 8.21595 0.479949L1.68155 3.18395C1.24296 3.36561 0.868087 3.67327 0.604361 4.068C0.340634 4.46274 0.199897 4.92682 0.199951 5.40155V22.8047C0.199906 23.1994 0.297209 23.5881 0.483239 23.9362C0.669269 24.2843 0.938283 24.5812 1.26645 24.8005C1.59462 25.0198 1.97181 25.1547 2.36461 25.1935C2.75741 25.2322 3.15369 25.1734 3.51835 25.0223L9.13435 22.6975L15.9504 25.5183C16.5375 25.761 17.1968 25.761 17.784 25.5183L24.3168 22.8143C24.7556 22.6329 25.1309 22.3254 25.3949 21.9306C25.6589 21.5359 25.7999 21.0717 25.8 20.5967V3.19675C25.7999 2.80225 25.7026 2.41385 25.5166 2.06592C25.3307 1.71799 25.0618 1.42126 24.7339 1.202C24.4059 0.982729 24.029 0.847686 23.6364 0.808816C23.2438 0.769947 22.8477 0.82845 22.4832 0.979149L16.8672 3.30235L10.0512 0.481549V0.479949ZM9.12795 4.99995C9.44621 4.99995 9.75144 5.12638 9.97648 5.35142C10.2015 5.57646 10.328 5.88169 10.328 6.19995V16.5999C10.328 16.9182 10.2015 17.2234 9.97648 17.4485C9.75144 17.6735 9.44621 17.7999 9.12795 17.7999C8.80969 17.7999 8.50447 17.6735 8.27942 17.4485C8.05438 17.2234 7.92795 16.9182 7.92795 16.5999V6.19995C7.92795 5.88169 8.05438 5.57646 8.27942 5.35142C8.50447 5.12638 8.80969 4.99995 9.12795 4.99995ZM18.072 9.39995C18.072 9.08169 17.9455 8.77646 17.7205 8.55142C17.4954 8.32638 17.1902 8.19995 16.872 8.19995C16.5537 8.19995 16.2485 8.32638 16.0234 8.55142C15.7984 8.77646 15.672 9.08169 15.672 9.39995V19.7999C15.672 20.1182 15.7984 20.4234 16.0234 20.6485C16.2485 20.8735 16.5537 20.9999 16.872 20.9999C17.1902 20.9999 17.4954 20.8735 17.7205 20.6485C17.9455 20.4234 18.072 20.1182 18.072 19.7999V9.39995Z" fill="white"/>
</svg>
