<svg width="17" height="16" viewBox="0 0 17 16" fill="none" xmlns="http://www.w3.org/2000/svg">
<path fill-rule="evenodd" clip-rule="evenodd" d="M8.5 16C10.6217 16 12.6566 15.1571 14.1569 13.6569C15.6571 12.1566 16.5 10.1217 16.5 8C16.5 5.87827 15.6571 3.84344 14.1569 2.34315C12.6566 0.842855 10.6217 0 8.5 0C6.37827 0 4.34344 0.842855 2.84315 2.34315C1.34285 3.84344 0.5 5.87827 0.5 8C0.5 10.1217 1.34285 12.1566 2.84315 13.6569C4.34344 15.1571 6.37827 16 8.5 16ZM12.357 6.191C12.4149 6.11129 12.4566 6.02095 12.4796 5.92514C12.5026 5.82933 12.5065 5.72994 12.491 5.63262C12.4756 5.5353 12.4412 5.44198 12.3897 5.35797C12.3382 5.27396 12.2707 5.20091 12.191 5.143C12.1113 5.08509 12.0209 5.04344 11.9251 5.02044C11.8293 4.99744 11.7299 4.99354 11.6326 5.00895C11.5353 5.02437 11.442 5.0588 11.358 5.11028C11.274 5.16176 11.2009 5.22929 11.143 5.309L7.66 10.099L5.78 8.219C5.71078 8.1474 5.628 8.0903 5.53647 8.05104C5.44495 8.01178 5.34653 7.99114 5.24694 7.99032C5.14736 7.9895 5.04861 8.00852 4.95646 8.04628C4.8643 8.08403 4.78059 8.13976 4.7102 8.21021C4.63982 8.28066 4.58417 8.36443 4.5465 8.45662C4.50883 8.54881 4.4899 8.64758 4.49081 8.74716C4.49173 8.84674 4.51246 8.94515 4.55181 9.03663C4.59116 9.12812 4.64834 9.21085 4.72 9.28L7.22 11.78C7.29663 11.8567 7.38896 11.9158 7.49065 11.9534C7.59233 11.9909 7.70094 12.006 7.80901 11.9975C7.91708 11.9891 8.02203 11.9573 8.11663 11.9044C8.21123 11.8515 8.29324 11.7787 8.357 11.691L12.357 6.191Z" fill="white"/>
</svg>
