<svg width="18" height="15" viewBox="0 0 18 15" fill="none" xmlns="http://www.w3.org/2000/svg">
<path fill-rule="evenodd" clip-rule="evenodd" d="M0 1C0 0.734784 0.105357 0.48043 0.292893 0.292893C0.48043 0.105357 0.734784 0 1 0H17C17.2652 0 17.5196 0.105357 17.7071 0.292893C17.8946 0.48043 18 0.734784 18 1V9C18 9.26522 17.8946 9.51957 17.7071 9.70711C17.5196 9.89464 17.2652 10 17 10H1C0.734784 10 0.48043 9.89464 0.292893 9.70711C0.105357 9.51957 0 9.26522 0 9V1ZM12 5C12 5.79565 11.6839 6.55871 11.1213 7.12132C10.5587 7.68393 9.79565 8 9 8C8.20435 8 7.44129 7.68393 6.87868 7.12132C6.31607 6.55871 6 5.79565 6 5C6 4.20435 6.31607 3.44129 6.87868 2.87868C7.44129 2.31607 8.20435 2 9 2C9.79565 2 10.5587 2.31607 11.1213 2.87868C11.6839 3.44129 12 4.20435 12 5ZM3 6C3.26522 6 3.51957 5.89464 3.70711 5.70711C3.89464 5.51957 4 5.26522 4 5C4 4.73478 3.89464 4.48043 3.70711 4.29289C3.51957 4.10536 3.26522 4 3 4C2.73478 4 2.48043 4.10536 2.29289 4.29289C2.10536 4.48043 2 4.73478 2 5C2 5.26522 2.10536 5.51957 2.29289 5.70711C2.48043 5.89464 2.73478 6 3 6ZM16 5C16 5.26522 15.8946 5.51957 15.7071 5.70711C15.5196 5.89464 15.2652 6 15 6C14.7348 6 14.4804 5.89464 14.2929 5.70711C14.1054 5.51957 14 5.26522 14 5C14 4.73478 14.1054 4.48043 14.2929 4.29289C14.4804 4.10536 14.7348 4 15 4C15.2652 4 15.5196 4.10536 15.7071 4.29289C15.8946 4.48043 16 4.73478 16 5ZM0.75 11.5C0.551088 11.5 0.360322 11.579 0.21967 11.7197C0.0790177 11.8603 0 12.0511 0 12.25C0 12.4489 0.0790177 12.6397 0.21967 12.7803C0.360322 12.921 0.551088 13 0.75 13C5.167 13 9.443 13.603 13.499 14.73C14.61 15.039 15.75 14.218 15.75 13.034V12.25C15.75 12.0511 15.671 11.8603 15.5303 11.7197C15.3897 11.579 15.1989 11.5 15 11.5C14.8011 11.5 14.6103 11.579 14.4697 11.7197C14.329 11.8603 14.25 12.0511 14.25 12.25V13.034C14.2484 13.0755 14.2373 13.1161 14.2176 13.1526C14.1979 13.1891 14.1701 13.2207 14.1363 13.2448C14.1025 13.269 14.0637 13.285 14.0227 13.2918C13.9817 13.2986 13.9398 13.2959 13.9 13.284C9.61774 12.0963 5.19392 11.4961 0.75 11.5Z" fill="white"/>
</svg>
