<svg width="140" height="96" viewBox="0 0 140 96" fill="none" xmlns="http://www.w3.org/2000/svg">
<rect width="139.5" height="96" rx="4" fill="#C4C4C4"/>
<g clip-path="url(#clip0_307_2432)">
<rect x="116" y="72" width="20" height="20" rx="10" fill="#7BACF6"/>
<path fill-rule="evenodd" clip-rule="evenodd" d="M126 90C128.122 90 130.157 89.1571 131.657 87.6569C133.157 86.1566 134 84.1217 134 82C134 79.8783 133.157 77.8434 131.657 76.3431C130.157 74.8429 128.122 74 126 74C123.878 74 121.843 74.8429 120.343 76.3431C118.843 77.8434 118 79.8783 118 82C118 84.1217 118.843 86.1566 120.343 87.6569C121.843 89.1571 123.878 90 126 90ZM126.75 78.75C126.75 78.5511 126.671 78.3603 126.53 78.2197C126.39 78.079 126.199 78 126 78C125.801 78 125.61 78.079 125.47 78.2197C125.329 78.3603 125.25 78.5511 125.25 78.75V81.25H122.75C122.551 81.25 122.36 81.329 122.22 81.4697C122.079 81.6103 122 81.8011 122 82C122 82.1989 122.079 82.3897 122.22 82.5303C122.36 82.671 122.551 82.75 122.75 82.75H125.25V85.25C125.25 85.4489 125.329 85.6397 125.47 85.7803C125.61 85.921 125.801 86 126 86C126.199 86 126.39 85.921 126.53 85.7803C126.671 85.6397 126.75 85.4489 126.75 85.25V82.75H129.25C129.449 82.75 129.64 82.671 129.78 82.5303C129.921 82.3897 130 82.1989 130 82C130 81.8011 129.921 81.6103 129.78 81.4697C129.64 81.329 129.449 81.25 129.25 81.25H126.75V78.75Z" fill="white"/>
</g>
<path d="M51.58 45.955C51.55 46.005 51.5167 46.0433 51.48 46.07C51.4467 46.0933 51.405 46.105 51.355 46.105C51.2983 46.105 51.2317 46.0767 51.155 46.02C51.0783 45.9633 50.9817 45.9017 50.865 45.835C50.7517 45.765 50.6133 45.7017 50.45 45.645C50.29 45.5883 50.095 45.56 49.865 45.56C49.6483 45.56 49.4567 45.59 49.29 45.65C49.1267 45.7067 48.9883 45.785 48.875 45.885C48.765 45.985 48.6817 46.1033 48.625 46.24C48.5683 46.3733 48.54 46.5183 48.54 46.675C48.54 46.875 48.5883 47.0417 48.685 47.175C48.785 47.305 48.915 47.4167 49.075 47.51C49.2383 47.6033 49.4217 47.685 49.625 47.755C49.8317 47.8217 50.0417 47.8917 50.255 47.965C50.4717 48.0383 50.6817 48.1217 50.885 48.215C51.0917 48.305 51.275 48.42 51.435 48.56C51.5983 48.7 51.7283 48.8717 51.825 49.075C51.925 49.2783 51.975 49.5283 51.975 49.825C51.975 50.1383 51.9217 50.4333 51.815 50.71C51.7083 50.9833 51.5517 51.2217 51.345 51.425C51.1417 51.6283 50.89 51.7883 50.59 51.905C50.2933 52.0217 49.955 52.08 49.575 52.08C49.1083 52.08 48.685 51.9967 48.305 51.83C47.925 51.66 47.6 51.4317 47.33 51.145L47.61 50.685C47.6367 50.6483 47.6683 50.6183 47.705 50.595C47.745 50.5683 47.7883 50.555 47.835 50.555C47.8783 50.555 47.9267 50.5733 47.98 50.61C48.0367 50.6433 48.1 50.6867 48.17 50.74C48.24 50.7933 48.32 50.8517 48.41 50.915C48.5 50.9783 48.6017 51.0367 48.715 51.09C48.8317 51.1433 48.9633 51.1883 49.11 51.225C49.2567 51.2583 49.4217 51.275 49.605 51.275C49.835 51.275 50.04 51.2433 50.22 51.18C50.4 51.1167 50.5517 51.0283 50.675 50.915C50.8017 50.7983 50.8983 50.66 50.965 50.5C51.0317 50.34 51.065 50.1617 51.065 49.965C51.065 49.7483 51.015 49.5717 50.915 49.435C50.8183 49.295 50.69 49.1783 50.53 49.085C50.37 48.9917 50.1867 48.9133 49.98 48.85C49.7733 48.7833 49.5633 48.7167 49.35 48.65C49.1367 48.58 48.9267 48.5 48.72 48.41C48.5133 48.32 48.33 48.2033 48.17 48.06C48.01 47.9167 47.88 47.7383 47.78 47.525C47.6833 47.3083 47.635 47.0417 47.635 46.725C47.635 46.4717 47.6833 46.2267 47.78 45.99C47.88 45.7533 48.0233 45.5433 48.21 45.36C48.4 45.1767 48.6317 45.03 48.905 44.92C49.1817 44.81 49.4983 44.755 49.855 44.755C50.255 44.755 50.6183 44.8183 50.945 44.945C51.275 45.0717 51.565 45.255 51.815 45.495L51.58 45.955ZM53.9668 44.635V52H53.0768V44.635H53.9668ZM57.5451 46.855C57.9151 46.855 58.2484 46.9167 58.5451 47.04C58.8417 47.1633 59.0951 47.3383 59.3051 47.565C59.5151 47.7917 59.6751 48.0667 59.7851 48.39C59.8984 48.71 59.9551 49.0683 59.9551 49.465C59.9551 49.865 59.8984 50.225 59.7851 50.545C59.6751 50.865 59.5151 51.1383 59.3051 51.365C59.0951 51.5917 58.8417 51.7667 58.5451 51.89C58.2484 52.01 57.9151 52.07 57.5451 52.07C57.1717 52.07 56.8351 52.01 56.5351 51.89C56.2384 51.7667 55.9851 51.5917 55.7751 51.365C55.5651 51.1383 55.4034 50.865 55.2901 50.545C55.1801 50.225 55.1251 49.865 55.1251 49.465C55.1251 49.0683 55.1801 48.71 55.2901 48.39C55.4034 48.0667 55.5651 47.7917 55.7751 47.565C55.9851 47.3383 56.2384 47.1633 56.5351 47.04C56.8351 46.9167 57.1717 46.855 57.5451 46.855ZM57.5451 51.375C58.0451 51.375 58.4184 51.2083 58.6651 50.875C58.9117 50.5383 59.0351 50.07 59.0351 49.47C59.0351 48.8667 58.9117 48.3967 58.6651 48.06C58.4184 47.7233 58.0451 47.555 57.5451 47.555C57.2917 47.555 57.0701 47.5983 56.8801 47.685C56.6934 47.7717 56.5367 47.8967 56.4101 48.06C56.2867 48.2233 56.1934 48.425 56.1301 48.665C56.0701 48.9017 56.0401 49.17 56.0401 49.47C56.0401 50.07 56.1634 50.5383 56.4101 50.875C56.6601 51.2083 57.0384 51.375 57.5451 51.375ZM62.551 52.08C62.151 52.08 61.8427 51.9683 61.626 51.745C61.4127 51.5217 61.306 51.2 61.306 50.78V47.68H60.696C60.6427 47.68 60.5977 47.665 60.561 47.635C60.5243 47.6017 60.506 47.5517 60.506 47.485V47.13L61.336 47.025L61.541 45.46C61.551 45.41 61.5727 45.37 61.606 45.34C61.6427 45.3067 61.6893 45.29 61.746 45.29H62.196V47.035H63.661V47.68H62.196V50.72C62.196 50.9333 62.2477 51.0917 62.351 51.195C62.4543 51.2983 62.5877 51.35 62.751 51.35C62.8443 51.35 62.9243 51.3383 62.991 51.315C63.061 51.2883 63.121 51.26 63.171 51.23C63.221 51.2 63.2627 51.1733 63.296 51.15C63.3327 51.1233 63.3643 51.11 63.391 51.11C63.4377 51.11 63.4793 51.1383 63.516 51.195L63.776 51.62C63.6227 51.7633 63.4377 51.8767 63.221 51.96C63.0043 52.04 62.781 52.08 62.551 52.08ZM68.3186 45.625V48.13H71.2636V48.92H68.3186V52H67.3486V44.835H71.7636V45.625H68.3186ZM74.4884 46.855C74.8584 46.855 75.1918 46.9167 75.4884 47.04C75.7851 47.1633 76.0384 47.3383 76.2484 47.565C76.4584 47.7917 76.6184 48.0667 76.7284 48.39C76.8418 48.71 76.8984 49.0683 76.8984 49.465C76.8984 49.865 76.8418 50.225 76.7284 50.545C76.6184 50.865 76.4584 51.1383 76.2484 51.365C76.0384 51.5917 75.7851 51.7667 75.4884 51.89C75.1918 52.01 74.8584 52.07 74.4884 52.07C74.1151 52.07 73.7784 52.01 73.4784 51.89C73.1818 51.7667 72.9284 51.5917 72.7184 51.365C72.5084 51.1383 72.3468 50.865 72.2334 50.545C72.1234 50.225 72.0684 49.865 72.0684 49.465C72.0684 49.0683 72.1234 48.71 72.2334 48.39C72.3468 48.0667 72.5084 47.7917 72.7184 47.565C72.9284 47.3383 73.1818 47.1633 73.4784 47.04C73.7784 46.9167 74.1151 46.855 74.4884 46.855ZM74.4884 51.375C74.9884 51.375 75.3618 51.2083 75.6084 50.875C75.8551 50.5383 75.9784 50.07 75.9784 49.47C75.9784 48.8667 75.8551 48.3967 75.6084 48.06C75.3618 47.7233 74.9884 47.555 74.4884 47.555C74.2351 47.555 74.0134 47.5983 73.8234 47.685C73.6368 47.7717 73.4801 47.8967 73.3534 48.06C73.2301 48.2233 73.1368 48.425 73.0734 48.665C73.0134 48.9017 72.9834 49.17 72.9834 49.47C72.9834 50.07 73.1068 50.5383 73.3534 50.875C73.6034 51.2083 73.9818 51.375 74.4884 51.375ZM79.4944 52.08C79.0944 52.08 78.786 51.9683 78.5694 51.745C78.356 51.5217 78.2494 51.2 78.2494 50.78V47.68H77.6394C77.586 47.68 77.541 47.665 77.5044 47.635C77.4677 47.6017 77.4494 47.5517 77.4494 47.485V47.13L78.2794 47.025L78.4844 45.46C78.4944 45.41 78.516 45.37 78.5494 45.34C78.586 45.3067 78.6327 45.29 78.6894 45.29H79.1394V47.035H80.6044V47.68H79.1394V50.72C79.1394 50.9333 79.191 51.0917 79.2944 51.195C79.3977 51.2983 79.531 51.35 79.6944 51.35C79.7877 51.35 79.8677 51.3383 79.9344 51.315C80.0044 51.2883 80.0644 51.26 80.1144 51.23C80.1644 51.2 80.206 51.1733 80.2394 51.15C80.276 51.1233 80.3077 51.11 80.3344 51.11C80.381 51.11 80.4227 51.1383 80.4594 51.195L80.7194 51.62C80.566 51.7633 80.381 51.8767 80.1644 51.96C79.9477 52.04 79.7244 52.08 79.4944 52.08ZM83.6291 46.855C83.9991 46.855 84.3324 46.9167 84.6291 47.04C84.9257 47.1633 85.1791 47.3383 85.3891 47.565C85.5991 47.7917 85.7591 48.0667 85.8691 48.39C85.9824 48.71 86.0391 49.0683 86.0391 49.465C86.0391 49.865 85.9824 50.225 85.8691 50.545C85.7591 50.865 85.5991 51.1383 85.3891 51.365C85.1791 51.5917 84.9257 51.7667 84.6291 51.89C84.3324 52.01 83.9991 52.07 83.6291 52.07C83.2557 52.07 82.9191 52.01 82.6191 51.89C82.3224 51.7667 82.0691 51.5917 81.8591 51.365C81.6491 51.1383 81.4874 50.865 81.3741 50.545C81.2641 50.225 81.2091 49.865 81.2091 49.465C81.2091 49.0683 81.2641 48.71 81.3741 48.39C81.4874 48.0667 81.6491 47.7917 81.8591 47.565C82.0691 47.3383 82.3224 47.1633 82.6191 47.04C82.9191 46.9167 83.2557 46.855 83.6291 46.855ZM83.6291 51.375C84.1291 51.375 84.5024 51.2083 84.7491 50.875C84.9957 50.5383 85.1191 50.07 85.1191 49.47C85.1191 48.8667 84.9957 48.3967 84.7491 48.06C84.5024 47.7233 84.1291 47.555 83.6291 47.555C83.3757 47.555 83.1541 47.5983 82.9641 47.685C82.7774 47.7717 82.6207 47.8967 82.4941 48.06C82.3707 48.2233 82.2774 48.425 82.2141 48.665C82.1541 48.9017 82.1241 49.17 82.1241 49.47C82.1241 50.07 82.2474 50.5383 82.4941 50.875C82.7441 51.2083 83.1224 51.375 83.6291 51.375Z" fill="#575757"/>
<defs>
<clipPath id="clip0_307_2432">
<rect x="116" y="72" width="20" height="20" rx="10" fill="white"/>
</clipPath>
</defs>
</svg>
