<svg width="68" height="105" viewBox="0 0 68 105" fill="none" xmlns="http://www.w3.org/2000/svg">
<path d="M60.8084 12.5528V23.2097L55.8638 26.575L48.5995 31.5157L40.5271 37.0086L27.8595 30.6143L11.8536 22.5357L8.52018 20.853L5.18677 18.1602L15.4792 8.88179L18.4353 6.21729C21.9269 3.07007 26.4439 1.33057 31.1247 1.33057H49.6923C51.1521 1.33057 52.5976 1.62084 53.9463 2.18481C55.2949 2.74878 56.5203 3.5754 57.5526 4.61748C58.5848 5.65956 59.4036 6.89669 59.9622 8.25824C60.5208 9.61978 60.8084 11.0791 60.8084 12.5528V12.5528Z" fill="#3F3D56"/>
<path d="M55.9077 18.1124L60.8083 12.7349C69.3769 44.6446 70.0772 75.4938 60.8083 104.999H54.5903L54.2557 104.661L45.5875 95.9122L40.5564 90.833L40.6886 89.854L41.1457 86.4871L42.1496 79.0826L43.245 71.004L44.3404 62.927L45.4357 54.8484L46.3237 48.2942L46.3695 47.963L46.5311 46.7698L47.6264 38.6912L48.5993 31.5157L48.7218 30.6142L49.5282 24.6682L49.8628 22.1994L55.8636 18.1601L55.9077 18.1124Z" fill="#CCCCCC"/>
<path d="M5.18616 18.1597H55.8637V105H5.18616C-0.347281 73.2252 -1.73823 43.5676 5.18616 18.1597Z" fill="#F2F2F2"/>
<path d="M34.1923 83.7949H24.8569V105H34.1923V83.7949Z" fill="#CCCCCC"/>
<path d="M49.5289 71.0044H10.854V79.0826H49.5289V71.0044Z" fill="#3F3D56"/>
<path d="M52.483 90.3057H35.9934V93.7499H52.483V90.3057Z" fill="#3F3D56"/>
<path d="M23.0992 90.3057H6.60962V93.7499H23.0992V90.3057Z" fill="#3F3D56"/>
<path d="M49.5289 54.8481H10.854V62.9263H49.5289V54.8481Z" fill="#3F3D56"/>
<path d="M49.5289 38.6917H10.854V46.7698H49.5289V38.6917Z" fill="#3F3D56"/>
<path d="M49.5289 22.5354H10.854V30.6136H49.5289V22.5354Z" fill="#3F3D56"/>
<path d="M60.8082 104.739H0.571777V104.904H60.8082V104.739Z" fill="#3F3D56"/>
<path d="M30.2609 1.01413L50.5335 0.0134019C53.3295 -0.124618 56.0742 0.807439 58.2191 2.62337C60.3641 4.43929 61.7514 7.00538 62.1039 9.80896L64.563 29.365L55.9259 18.1222L55.9079 18.1124L30.0617 4.5788L29.5488 4.31028C27.9799 3.48897 28.4957 1.10135 30.2609 1.01413H30.2609Z" fill="#3F3D56"/>
<path d="M40.5663 7.73975H24.0767V11.184H40.5663V7.73975Z" fill="#F2F2F2"/>
<path d="M34.1997 81.6072H26.5273C21.1836 60.5471 21.1836 39.8919 26.5273 19.6416H34.1997C39.084 40.6527 39.2591 61.3206 34.1997 81.6072Z" fill="#F2F2F2"/>
</svg>
