<svg width="32" height="32" viewBox="0 0 32 32" fill="none" xmlns="http://www.w3.org/2000/svg">
<circle cx="16" cy="16" r="16" fill="#F6FDCA"/>
<path fill-rule="evenodd" clip-rule="evenodd" d="M10 22.5V9.5H9.75C9.55109 9.5 9.36032 9.42098 9.21967 9.28033C9.07902 9.13968 9 8.94891 9 8.75C9 8.55109 9.07902 8.36032 9.21967 8.21967C9.36032 8.07902 9.55109 8 9.75 8H22.25C22.4489 8 22.6397 8.07902 22.7803 8.21967C22.921 8.36032 23 8.55109 23 8.75C23 8.94891 22.921 9.13968 22.7803 9.28033C22.6397 9.42098 22.4489 9.5 22.25 9.5H22V22.5H22.25C22.4489 22.5 22.6397 22.579 22.7803 22.7197C22.921 22.8603 23 23.0511 23 23.25C23 23.4489 22.921 23.6397 22.7803 23.7803C22.6397 23.921 22.4489 24 22.25 24H18.75C18.5511 24 18.3603 23.921 18.2197 23.7803C18.079 23.6397 18 23.4489 18 23.25V20.75C18 20.5511 17.921 20.3603 17.7803 20.2197C17.6397 20.079 17.4489 20 17.25 20H14.75C14.5511 20 14.3603 20.079 14.2197 20.2197C14.079 20.3603 14 20.5511 14 20.75V23.25C14 23.4489 13.921 23.6397 13.7803 23.7803C13.6397 23.921 13.4489 24 13.25 24H9.75C9.55109 24 9.36032 23.921 9.21967 23.7803C9.07902 23.6397 9 23.4489 9 23.25C9 23.0511 9.07902 22.8603 9.21967 22.7197C9.36032 22.579 9.55109 22.5 9.75 22.5H10ZM13 11.5C13 11.3674 13.0527 11.2402 13.1464 11.1464C13.2402 11.0527 13.3674 11 13.5 11H14.5C14.6326 11 14.7598 11.0527 14.8536 11.1464C14.9473 11.2402 15 11.3674 15 11.5V12.5C15 12.6326 14.9473 12.7598 14.8536 12.8536C14.7598 12.9473 14.6326 13 14.5 13H13.5C13.3674 13 13.2402 12.9473 13.1464 12.8536C13.0527 12.7598 13 12.6326 13 12.5V11.5ZM13.5 15C13.3674 15 13.2402 15.0527 13.1464 15.1464C13.0527 15.2402 13 15.3674 13 15.5V16.5C13 16.6326 13.0527 16.7598 13.1464 16.8536C13.2402 16.9473 13.3674 17 13.5 17H14.5C14.6326 17 14.7598 16.9473 14.8536 16.8536C14.9473 16.7598 15 16.6326 15 16.5V15.5C15 15.3674 14.9473 15.2402 14.8536 15.1464C14.7598 15.0527 14.6326 15 14.5 15H13.5ZM17 11.5C17 11.3674 17.0527 11.2402 17.1464 11.1464C17.2402 11.0527 17.3674 11 17.5 11H18.5C18.6326 11 18.7598 11.0527 18.8536 11.1464C18.9473 11.2402 19 11.3674 19 11.5V12.5C19 12.6326 18.9473 12.7598 18.8536 12.8536C18.7598 12.9473 18.6326 13 18.5 13H17.5C17.3674 13 17.2402 12.9473 17.1464 12.8536C17.0527 12.7598 17 12.6326 17 12.5V11.5ZM17.5 15C17.3674 15 17.2402 15.0527 17.1464 15.1464C17.0527 15.2402 17 15.3674 17 15.5V16.5C17 16.6326 17.0527 16.7598 17.1464 16.8536C17.2402 16.9473 17.3674 17 17.5 17H18.5C18.6326 17 18.7598 16.9473 18.8536 16.8536C18.9473 16.7598 19 16.6326 19 16.5V15.5C19 15.3674 18.9473 15.2402 18.8536 15.1464C18.7598 15.0527 18.6326 15 18.5 15H17.5Z" fill="#92C000"/>
</svg>
