<svg width="14" height="16" viewBox="0 0 14 16" fill="none" xmlns="http://www.w3.org/2000/svg">
<path fill-rule="evenodd" clip-rule="evenodd" d="M1 14.5V1.5H0.75C0.551088 1.5 0.360322 1.42098 0.21967 1.28033C0.0790175 1.13968 0 0.948912 0 0.75C0 0.551088 0.0790175 0.360322 0.21967 0.21967C0.360322 0.0790175 0.551088 4.19176e-09 0.75 0H13.25C13.4489 4.19176e-09 13.6397 0.0790175 13.7803 0.21967C13.921 0.360322 14 0.551088 14 0.75C14 0.948912 13.921 1.13968 13.7803 1.28033C13.6397 1.42098 13.4489 1.5 13.25 1.5H13V14.5H13.25C13.4489 14.5 13.6397 14.579 13.7803 14.7197C13.921 14.8603 14 15.0511 14 15.25C14 15.4489 13.921 15.6397 13.7803 15.7803C13.6397 15.921 13.4489 16 13.25 16H9.75C9.55109 16 9.36032 15.921 9.21967 15.7803C9.07902 15.6397 9 15.4489 9 15.25V12.75C9 12.5511 8.92098 12.3603 8.78033 12.2197C8.63968 12.079 8.44891 12 8.25 12H5.75C5.55109 12 5.36032 12.079 5.21967 12.2197C5.07902 12.3603 5 12.5511 5 12.75V15.25C5 15.4489 4.92098 15.6397 4.78033 15.7803C4.63968 15.921 4.44891 16 4.25 16H0.75C0.551088 16 0.360322 15.921 0.21967 15.7803C0.0790175 15.6397 0 15.4489 0 15.25C0 15.0511 0.0790175 14.8603 0.21967 14.7197C0.360322 14.579 0.551088 14.5 0.75 14.5H1ZM4 3.5C4 3.36739 4.05268 3.24021 4.14645 3.14645C4.24021 3.05268 4.36739 3 4.5 3H5.5C5.63261 3 5.75979 3.05268 5.85355 3.14645C5.94732 3.24021 6 3.36739 6 3.5V4.5C6 4.63261 5.94732 4.75979 5.85355 4.85355C5.75979 4.94732 5.63261 5 5.5 5H4.5C4.36739 5 4.24021 4.94732 4.14645 4.85355C4.05268 4.75979 4 4.63261 4 4.5V3.5ZM4.5 7C4.36739 7 4.24021 7.05268 4.14645 7.14645C4.05268 7.24021 4 7.36739 4 7.5V8.5C4 8.63261 4.05268 8.75979 4.14645 8.85355C4.24021 8.94732 4.36739 9 4.5 9H5.5C5.63261 9 5.75979 8.94732 5.85355 8.85355C5.94732 8.75979 6 8.63261 6 8.5V7.5C6 7.36739 5.94732 7.24021 5.85355 7.14645C5.75979 7.05268 5.63261 7 5.5 7H4.5ZM8 3.5C8 3.36739 8.05268 3.24021 8.14645 3.14645C8.24021 3.05268 8.36739 3 8.5 3H9.5C9.63261 3 9.75979 3.05268 9.85355 3.14645C9.94732 3.24021 10 3.36739 10 3.5V4.5C10 4.63261 9.94732 4.75979 9.85355 4.85355C9.75979 4.94732 9.63261 5 9.5 5H8.5C8.36739 5 8.24021 4.94732 8.14645 4.85355C8.05268 4.75979 8 4.63261 8 4.5V3.5ZM8.5 7C8.36739 7 8.24021 7.05268 8.14645 7.14645C8.05268 7.24021 8 7.36739 8 7.5V8.5C8 8.63261 8.05268 8.75979 8.14645 8.85355C8.24021 8.94732 8.36739 9 8.5 9H9.5C9.63261 9 9.75979 8.94732 9.85355 8.85355C9.94732 8.75979 10 8.63261 10 8.5V7.5C10 7.36739 9.94732 7.24021 9.85355 7.14645C9.75979 7.05268 9.63261 7 9.5 7H8.5Z" fill="#92C000"/>
</svg>
